<?xml version="1.0" encoding="UTF-8" standalone="no"?>
<svg
   xmlns:dc="http://purl.org/dc/elements/1.1/"
   xmlns:cc="http://creativecommons.org/ns#"
   xmlns:rdf="http://www.w3.org/1999/02/22-rdf-syntax-ns#"
   xmlns:svg="http://www.w3.org/2000/svg"
   xmlns="http://www.w3.org/2000/svg"
   viewBox="0 0 322 147"
   height="147"
   width="322"
   xml:space="preserve"
   id="svg2"
   version="1.1"><metadata
     id="metadata8"><rdf:RDF><cc:Work
         rdf:about=""><dc:format>image/svg+xml</dc:format><dc:type
           rdf:resource="http://purl.org/dc/dcmitype/StillImage" /></cc:Work></rdf:RDF></metadata><defs
     id="defs6"><clipPath
       id="clipPath18"
       clipPathUnits="userSpaceOnUse"><path
         id="path16"
         d="M 0,0 H 841.89 V 595.281 H 0 Z" /></clipPath></defs><g
     transform="matrix(1,0,0,-1,-270,371)"
     id="g10"><g
       id="g12"><g
         clip-path="url(#clipPath18)"
         id="g14"><g
           transform="translate(386.0073,340.0098)"
           id="g20"><path
             id="path22"
             style="fill:#fff;fill-opacity:1;fill-rule:nonzero;stroke:none"
             d="m 0,0 -19.106,-16.13 c -1.267,-1.068 -2.299,-3.277 -2.301,-4.934 -0.02,-14.454 -0.022,-74.816 -0.022,-89.27 0,-1.657 1.343,-3 3,-3 h 17.721 c 1.657,0 3,1.343 3,3 V -1.065 C 2.292,0.592 1.266,1.069 0,0" /></g><g
           transform="translate(350.1567,247.0547)"
           id="g24"><path
             id="path26"
             style="fill:#fff;fill-opacity:1;fill-rule:nonzero;stroke:none"
             d="m 0,0 h -52.971 c -1.574,0 -3,0.995 -3,3 v 46.666 72.342 c 0,1.656 -1.019,2.125 -2.278,1.047 l -18.972,-16.258 c -1.258,-1.078 -2.278,-3.295 -2.278,-4.952 V -17.398 c 0,-1.482 1.075,-2.697 2.486,-2.933 l -0.044,-0.048 h 76.8 c 1.657,0 3,1.343 3,3 L 2.743,-3 C 2.743,-1.343 1.4,0 0,0" /></g><g
           transform="translate(472.0674,284.4502)"
           id="g28"><path
             id="path30"
             style="fill:#fff;fill-opacity:1;fill-rule:nonzero;stroke:none"
             d="m 0,0 c -4.312,3.06 -11.229,6.431 -20.753,10.116 -11.333,4.38 -18.685,7.821 -22.057,10.324 -3.373,2.503 -5.058,5.561 -5.058,9.177 0,7.369 6.467,11.055 19.397,11.055 6.831,0 14.95,-1.672 24.35,-5.009 1.562,-0.554 3.487,0.129 4.316,1.563 l 7.187,12.449 c 0.829,1.435 0.266,3.13 -1.278,3.731 -10.694,4.162 -21.94,6.246 -33.741,6.246 -13.697,0 -24.524,-2.73 -32.484,-8.187 -7.962,-5.458 -11.942,-13.123 -11.942,-22.995 0,-8.204 2.347,-14.878 7.041,-20.023 4.692,-5.145 13.677,-10.29 26.959,-15.434 6.811,-2.643 12.129,-5.006 15.955,-7.091 3.822,-2.086 6.569,-4.104 8.238,-6.049 1.668,-1.947 2.503,-4.38 2.503,-7.3 0,-9.109 -8.545,-13.662 -23.631,-13.662 -12.527,0 -21.09,3.242 -26.928,6.121 -1.486,0.734 -3.368,0.231 -4.233,-1.182 l -6.871,-11.214 c -0.866,-1.411 -0.445,-3.301 1.003,-4.105 7.352,-4.082 19.819,-8.39 36.195,-8.39 15.294,0 28.044,3.005 36.249,9.019 8.202,6.014 12.307,14.652 12.307,25.916 0,5.562 -1.043,10.34 -3.13,14.339 C 7.508,-6.588 4.311,-3.06 0,0" /></g><g
           transform="translate(590.5508,339.3711)"
           id="g32"><path
             id="path34"
             style="fill:#fff;fill-opacity:1;fill-rule:nonzero;stroke:none"
             d="m 0,0 c 1.179,1.165 0.789,2.11 -0.867,2.11 h -21.14 c -1.656,0 -3.989,-0.908 -5.211,-2.028 l -43.609,-43.704 c -1.222,-1.12 -2.211,-0.685 -2.211,0.972 v 72.341 c 0,1.657 -1.021,2.126 -2.278,1.048 L -94.289,14.481 c -1.259,-1.078 -2.278,-3.295 -2.278,-4.952 v -119.244 c 0,-1.657 1.343,-2.991 3,-2.98 h 17.78 c 1.656,0.01 3,1.485 3,3.142 v 34.524 c 0,1.657 0.965,3.935 2.154,5.087 l 8.143,7.88 c 1.19,1.154 2.886,0.959 3.786,-0.431 l 29.762,-47.541 c 0.899,-1.391 2.972,-2.661 4.629,-2.661 H -4.53 c 1.657,0 2.273,1.272 1.378,2.665 l -39.082,60.759 c -0.897,1.393 -0.668,3.467 0.509,4.633 z" /></g></g></g></g></svg>
