<?xml version="1.0" standalone="no"?>
<!DOCTYPE svg PUBLIC "-//W3C//DTD SVG 20010904//EN"
 "http://www.w3.org/TR/2001/REC-SVG-20010904/DTD/svg10.dtd">
<svg version="1.0" xmlns="http://www.w3.org/2000/svg"
 width="612.000000pt" height="612.000000pt" viewBox="0 0 612.000000 612.000000"
 preserveAspectRatio="xMidYMid meet">
<metadata>
Created by potrace 1.11, written by Peter Selinger 2001-2013
</metadata>
<g transform="translate(0.000000,612.000000) scale(0.100000,-0.100000)"
fill="#000000" stroke="none">
<path d="M3030 6090 c-7 -16 -16 -30 -21 -30 -4 0 -11 -10 -15 -22 -5 -18 -51
-100 -94 -168 -5 -8 -28 -46 -50 -85 -22 -38 -51 -88 -65 -110 -14 -22 -28
-47 -32 -55 -3 -8 -21 -39 -40 -68 -18 -29 -33 -54 -33 -56 0 -2 -36 -65 -80
-139 -44 -75 -80 -141 -80 -149 0 -7 20 -48 45 -92 25 -43 45 -82 45 -87 0 -5
3 -9 8 -9 4 0 16 -17 27 -37 11 -21 41 -74 66 -118 26 -44 87 -147 135 -230
48 -82 92 -160 98 -172 6 -13 14 -23 19 -23 4 0 7 -5 7 -11 0 -9 39 -80 100
-179 29 -49 236 -406 239 -414 2 -6 8 -15 13 -21 7 -8 100 -166 190 -325 11
-19 65 -111 119 -203 55 -92 99 -172 99 -177 0 -6 5 -10 10 -10 6 0 10 -4 10
-9 0 -5 86 -157 192 -338 185 -317 219 -375 242 -418 6 -11 19 -31 27 -45 9
-14 67 -113 129 -220 62 -107 121 -209 131 -226 l18 -30 -32 -38 c-18 -21 -45
-52 -62 -70 -16 -18 -61 -68 -100 -112 -38 -43 -81 -90 -95 -105 -14 -15 -44
-49 -66 -76 -23 -26 -57 -64 -75 -84 -19 -20 -61 -67 -94 -104 -33 -37 -71
-80 -85 -95 -14 -15 -54 -60 -90 -101 -36 -40 -74 -83 -85 -95 -11 -12 -40
-45 -65 -74 -25 -29 -58 -67 -75 -85 -16 -17 -55 -60 -85 -95 -30 -34 -65 -73
-76 -86 -12 -13 -50 -56 -85 -96 -35 -40 -75 -84 -89 -99 -14 -14 -41 -46 -62
-70 -20 -24 -53 -62 -73 -84 -21 -22 -57 -62 -80 -90 -24 -27 -58 -65 -74 -84
-22 -25 -28 -38 -21 -45 8 -8 206 -11 621 -11 l610 -1 54 61 c29 33 63 71 75
85 11 14 33 39 49 55 15 17 68 75 116 130 49 55 103 116 120 135 18 19 74 82
125 140 78 87 205 230 245 274 6 6 42 47 80 91 90 103 134 152 166 187 22 24
100 111 159 178 37 43 147 166 165 186 56 61 131 147 137 158 5 8 -94 190
-171 316 -53 85 -121 204 -121 211 0 5 -4 9 -10 9 -5 0 -9 3 -8 7 1 5 -5 19
-14 33 -9 14 -96 162 -193 330 -98 168 -197 337 -220 375 -23 39 -45 77 -48
85 -4 8 -18 33 -32 55 -14 22 -44 73 -67 114 -24 40 -53 90 -65 110 -12 20
-31 52 -41 71 -11 19 -48 82 -82 140 -35 58 -70 119 -80 135 -9 17 -35 59 -56
95 -21 36 -48 82 -59 102 -17 32 -107 184 -142 243 -7 11 -15 27 -19 35 -4 8
-25 42 -46 76 -21 34 -38 66 -38 72 0 6 -4 12 -8 14 -5 2 -15 15 -23 30 -8 16
-70 124 -139 240 -69 117 -130 222 -136 233 -6 11 -80 137 -164 280 -84 143
-163 279 -176 301 -13 23 -83 142 -155 265 -72 123 -145 249 -162 279 -16 30
-35 62 -42 70 -7 8 -21 31 -30 50 -29 58 -47 63 -65 20z"/>
<path d="M2299 4839 c-31 -53 -50 -87 -181 -311 -58 -101 -116 -199 -127 -218
-12 -19 -24 -43 -27 -52 -4 -10 -10 -18 -15 -18 -5 0 -9 -5 -9 -10 0 -6 -20
-43 -44 -83 -43 -72 -108 -184 -136 -235 -8 -15 -40 -70 -71 -122 -124 -210
-189 -322 -189 -327 0 -3 -8 -17 -19 -31 -10 -15 -29 -47 -43 -72 -14 -25 -55
-96 -92 -158 -36 -62 -66 -115 -66 -118 0 -3 -5 -10 -10 -17 -10 -11 -180
-299 -194 -328 -3 -8 -17 -32 -31 -54 -14 -22 -28 -47 -32 -55 -4 -8 -22 -38
-40 -67 -18 -29 -33 -54 -33 -57 0 -3 -16 -30 -35 -60 -19 -30 -35 -59 -35
-64 0 -5 -7 -15 -15 -22 -8 -7 -15 -21 -15 -30 0 -10 -4 -20 -8 -22 -5 -1 -53
-79 -107 -173 -92 -161 -154 -266 -183 -310 -6 -11 -17 -31 -22 -44 -6 -13
-19 -36 -30 -51 -11 -16 -20 -32 -20 -37 0 -9 28 -43 99 -122 12 -14 51 -57
85 -95 33 -38 70 -78 81 -90 11 -12 47 -52 80 -91 33 -38 67 -76 75 -85 18
-19 142 -158 171 -191 11 -13 46 -53 77 -88 142 -160 215 -241 247 -276 17
-18 43 -48 59 -66 39 -45 168 -191 181 -205 6 -6 35 -39 65 -74 30 -34 64 -72
75 -84 37 -41 156 -174 176 -197 20 -24 21 -24 277 -24 l256 0 30 31 c17 17
60 64 96 104 73 83 123 139 160 180 14 15 50 55 80 90 30 34 64 72 75 84 11
13 47 53 80 91 33 37 71 80 85 95 14 15 50 56 82 91 31 35 72 82 92 104 70 79
91 75 -396 76 -238 0 -444 2 -457 3 -13 2 -40 21 -60 43 -20 23 -59 67 -88
100 -28 32 -65 74 -82 93 -18 19 -58 64 -90 100 -32 36 -96 108 -142 160 -46
52 -93 104 -104 116 -11 11 -45 49 -75 84 -30 35 -62 70 -70 78 -8 9 -27 31
-42 50 l-27 34 24 39 c14 21 25 41 25 44 0 3 11 24 26 46 14 22 33 55 43 72
10 18 66 114 125 214 58 101 106 187 106 192 0 5 4 11 8 13 9 4 162 266 162
278 0 5 4 10 8 12 4 2 53 81 107 176 55 95 105 180 110 190 22 36 91 156 111
191 11 20 57 98 102 175 45 76 82 140 82 142 0 2 15 27 33 57 17 29 37 61 44
72 23 38 98 170 102 180 2 6 7 12 10 15 4 3 11 16 17 30 9 20 6 32 -16 70 -15
25 -38 66 -52 91 -14 24 -58 100 -98 169 -40 69 -81 141 -92 160 -11 19 -29
47 -39 62 -11 14 -19 29 -19 32 0 5 -73 134 -100 176 -5 8 -27 47 -49 86 -33
59 -56 84 -75 84 -1 0 -13 -19 -27 -41z"/>
</g>
</svg>
